<?xml version="1.0" standalone="no"?>
<!DOCTYPE svg PUBLIC "-//W3C//DTD SVG 20010904//EN"
 "http://www.w3.org/TR/2001/REC-SVG-20010904/DTD/svg10.dtd">
<svg version="1.0" xmlns="http://www.w3.org/2000/svg"
 width="1080.000000pt" height="1080.000000pt" viewBox="0 0 1080.000000 1080.000000"
 preserveAspectRatio="xMidYMid meet">
<metadata>
Created by potrace 1.16, written by Peter Selinger 2001-2019
</metadata>
<g transform="translate(0.000000,1080.000000) scale(0.100000,-0.100000)"
fill="#000000" stroke="none">
<path d="M0 5400 l0 -5400 5400 0 5400 0 0 5400 0 5400 -5400 0 -5400 0 0
-5400z m2224 775 c107 -19 176 -52 237 -116 39 -41 85 -116 103 -169 2 -8 5
42 5 113 l1 127 165 0 165 0 0 -210 0 -210 165 0 165 0 0 210 0 210 160 0 160
0 0 -240 c0 -153 4 -240 10 -240 6 0 10 87 10 240 l0 240 315 0 315 0 0 -125
0 -125 -150 0 -150 0 0 -115 0 -115 160 0 160 0 0 240 0 240 315 0 315 0 0
-125 0 -125 -150 0 -150 0 0 -115 0 -115 125 0 125 0 0 -130 0 -130 -125 0
-125 0 0 -110 0 -110 150 0 150 0 0 -125 0 -125 -315 0 -315 0 0 235 0 235
-160 0 -160 0 0 -110 0 -110 150 0 150 0 0 -125 0 -125 -315 0 -315 0 0 235
c0 150 -4 235 -10 235 -6 0 -10 -85 -10 -235 l0 -235 -160 0 -160 0 0 245 0
244 -152 3 -152 3 -10 35 c-9 27 -12 -30 -14 -247 l-2 -283 -88 0 -88 0 -11
-86 c-23 -169 -136 -344 -282 -437 -86 -55 -121 -70 -220 -97 -76 -21 -97 -22
-274 -17 -106 3 -208 10 -227 16 -19 5 -62 17 -95 26 -99 28 -301 127 -335
165 -3 3 -17 13 -32 23 -16 10 -28 22 -28 27 0 12 512 14 525 2 28 -25 108
-37 235 -37 120 0 141 3 190 24 87 38 143 108 173 218 39 145 10 295 -81 410
-63 81 -147 135 -352 226 -70 31 -138 98 -176 173 -28 56 -29 65 -29 189 0
130 0 130 37 205 66 134 151 198 295 224 101 18 87 18 187 1z m5461 -68 c72
-24 123 -55 173 -105 111 -111 152 -232 152 -448 0 -179 -14 -261 -59 -359
-84 -180 -243 -275 -461 -275 -174 0 -317 58 -404 164 -20 24 -36 49 -36 54 0
6 -3 12 -7 14 -12 5 -50 96 -67 160 -19 66 -22 302 -5 394 41 233 202 398 412
423 99 12 230 3 302 -22z m1070 0 c72 -24 123 -55 173 -105 111 -111 152 -232
152 -448 0 -179 -14 -261 -59 -359 -84 -180 -243 -275 -461 -275 -174 0 -317
58 -404 164 -20 24 -36 49 -36 54 0 6 -3 12 -7 14 -12 5 -50 96 -67 160 -19
66 -22 302 -5 394 41 233 202 398 412 423 99 12 230 3 302 -22z m-3555 -457
l0 -480 150 0 150 0 0 -125 0 -125 -315 0 -315 0 0 605 0 605 165 0 165 0 0
-480z m878 433 c6 -27 17 -75 25 -108 24 -100 47 -195 68 -285 10 -47 26 -114
35 -150 8 -36 18 -77 21 -93 9 -48 19 -38 32 31 7 37 16 81 21 97 5 17 16 59
24 95 50 214 92 393 100 433 l7 27 162 -2 162 -3 12 -70 c6 -38 18 -106 26
-150 9 -44 25 -129 36 -190 11 -60 27 -148 36 -195 26 -131 41 -215 64 -340
11 -63 25 -135 30 -160 6 -25 10 -57 11 -72 l0 -28 -149 0 c-129 0 -150 2
-155 16 -4 9 -13 62 -22 118 -8 55 -21 139 -29 186 -8 47 -22 139 -32 205
l-17 120 -12 -55 c-13 -61 -37 -163 -60 -255 -14 -55 -34 -142 -65 -282 l-12
-53 -158 0 c-151 0 -159 1 -159 20 0 10 -4 29 -9 42 -5 13 -19 66 -31 118 -12
52 -33 142 -47 200 -13 58 -30 133 -37 168 -7 34 -15 64 -18 67 -3 3 -10 -30
-17 -72 -6 -43 -18 -118 -27 -168 -8 -49 -23 -150 -34 -223 -11 -73 -22 -137
-25 -143 -4 -5 -73 -9 -156 -9 -135 0 -149 2 -149 18 0 26 25 160 115 637 7
39 22 120 33 180 11 61 27 146 36 190 9 44 19 94 22 110 15 84 -5 75 173 75
l158 0 11 -47z m3396 -29 c20 -42 36 -78 36 -80 0 -2 20 -47 45 -100 25 -52
45 -97 45 -100 0 -2 17 -41 39 -87 21 -45 42 -91 47 -102 6 -12 10 89 12 263
l2 282 145 0 145 0 0 -605 0 -605 -184 0 -184 0 -13 33 c-14 37 -62 140 -125
275 -24 52 -44 95 -44 98 0 2 -16 36 -35 76 l-35 73 0 -277 0 -278 -140 0
-140 0 0 605 0 605 174 0 175 0 35 -76z"/>
<path d="M2112 5865 c-33 -18 -51 -46 -52 -79 0 -46 54 -89 152 -120 118 -38
243 -103 305 -160 l53 -48 0 136 0 136 -174 0 -173 0 -6 47 c-4 37 -12 54 -36
75 -35 31 -36 31 -69 13z"/>
<path d="M7405 5835 c-44 -24 -59 -40 -89 -96 -64 -116 -37 -423 43 -487 28
-23 102 -52 131 -52 32 0 96 27 121 50 67 66 93 206 69 388 -7 57 -17 84 -44
125 -19 29 -45 58 -57 66 -36 22 -138 25 -174 6z"/>
<path d="M8475 5835 c-44 -24 -59 -40 -89 -96 -64 -116 -37 -423 43 -487 28
-23 102 -52 131 -52 32 0 96 27 121 50 67 66 93 206 69 388 -7 57 -17 84 -44
125 -19 29 -45 58 -57 66 -36 22 -138 25 -174 6z"/>
</g>
</svg>
