<?xml version="1.0" standalone="no"?>
<!DOCTYPE svg PUBLIC "-//W3C//DTD SVG 20010904//EN"
 "http://www.w3.org/TR/2001/REC-SVG-20010904/DTD/svg10.dtd">
<svg version="1.0" xmlns="http://www.w3.org/2000/svg"
 width="500.000000pt" height="500.000000pt" viewBox="0 0 500.000000 500.000000"
 preserveAspectRatio="xMidYMid meet">
<metadata>
Created by potrace 1.16, written by Peter Selinger 2001-2019
</metadata>
<g transform="translate(0.000000,500.000000) scale(0.100000,-0.100000)"
fill="#000000" stroke="none">
<path d="M0 2500 l0 -2500 2500 0 2500 0 0 2500 0 2500 -2500 0 -2500 0 0
-2500z m2647 1106 c150 -43 259 -123 327 -238 44 -75 83 -188 91 -261 l7 -67
-245 0 -245 0 -7 53 c-14 104 -73 153 -147 123 -51 -22 -85 -91 -68 -141 18
-54 68 -88 193 -129 274 -92 439 -201 549 -361 40 -58 78 -135 78 -156 0 -8 4
-19 8 -24 10 -11 26 -67 41 -143 6 -30 11 -131 11 -225 0 -154 -3 -182 -26
-267 -53 -194 -152 -351 -289 -456 -38 -30 -74 -58 -80 -62 -9 -7 -40 -24
-137 -73 -9 -4 -44 -18 -78 -29 -113 -38 -206 -50 -393 -50 -228 0 -397 31
-587 106 -143 57 -337 170 -384 223 l-20 22 345 -4 c341 -3 345 -3 434 -30
154 -46 400 -35 515 23 138 71 220 237 220 445 0 313 -166 516 -544 664 -154
61 -246 153 -311 312 -22 54 -25 77 -25 176 0 101 4 125 31 206 63 191 177
307 354 361 77 23 83 24 196 25 83 1 122 -4 186 -23z"/>
</g>
</svg>
